# xmcd
#
# Track frame offsets:
#  150
#  18756
#  37027
#  59094
#  76496
#  97976
#  120527
#  138696
#  158205
#  177938
#  199313
#  217525
#  239713
#  257834
#  279230
#
# Disc length: 4008 seconds
#
# Revision: 0
# Processed by: cddbd v1.4PL0 Copyright (c) Steve Scherf et al.
# Submitted via: AltoMP3_Maker 3.0
#
DISCID=d40fa60f
DTITLE=苏永康 - 爱一个人好难
DYEAR=1900
DGENRE=
TTITLE0=有心
TTITLE1=我为你伤心
TTITLE2=爱一个人好难
TTITLE3=我女人
TTITLE4=恒心
TTITLE5=旧爱还是最美
TTITLE6=我不是爱过就算的人
TTITLE7=爱似狂潮
TTITLE8=男人也会为爱流眼泪
TTITLE9=WHAT  ABOUT  LOVE
TTITLE10=盲人
TTITLE11=让懂你的人爱你
TTITLE12=活着就是精彩
TTITLE13=十分钟后离开你
TTITLE14=傻子
EXTD=
EXTT0=
EXTT1=
EXTT2=
EXTT3=
EXTT4=
EXTT5=
EXTT6=
EXTT7=
EXTT8=
EXTT9=
EXTT10=
EXTT11=
EXTT12=
EXTT13=
EXTT14=
PLAYORDER=
